<svg width="130" height="146" viewBox="0 0 130 146" fill="none" xmlns="http://www.w3.org/2000/svg">
<g filter="url(#filter0_d_14_2224)">
<path fill-rule="evenodd" clip-rule="evenodd" d="M34 0C17.4315 0 4 13.4314 4 30V92.4565C4 106.97 14.3066 119.077 28 121.856V137.153L55.1913 122.456H96C112.569 122.456 126 109.025 126 92.4565V30C126 13.4315 112.569 0 96 0H34Z" fill="url(#paint0_linear_14_2224)"/>
</g>
<g filter="url(#filter1_d_14_2224)">
<path d="M70.6979 56.9447C71.3115 57.477 72.1861 57.5852 72.911 57.2185L94.1761 46.4625C96.1624 45.4578 98.0576 47.9612 96.5516 49.6003L70.4889 77.9669C69.7472 78.7742 68.4938 78.8339 67.6787 78.1007L53.7604 65.5821C53.1505 65.0336 52.2676 64.913 51.533 65.278L31.6278 75.1675C29.643 76.1536 27.7661 73.6591 29.2635 72.0251L53.9977 45.0354C54.7296 44.2368 55.9643 44.1661 56.7826 44.8758L70.6979 56.9447Z" fill="#FDFFFC"/>
</g>
<defs>
<filter id="filter0_d_14_2224" x="0" y="0" width="130" height="145.153" filterUnits="userSpaceOnUse" color-interpolation-filters="sRGB">
<feFlood flood-opacity="0" result="BackgroundImageFix"/>
<feColorMatrix in="SourceAlpha" type="matrix" values="0 0 0 0 0 0 0 0 0 0 0 0 0 0 0 0 0 0 127 0" result="hardAlpha"/>
<feOffset dy="4"/>
<feGaussianBlur stdDeviation="2"/>
<feComposite in2="hardAlpha" operator="out"/>
<feColorMatrix type="matrix" values="0 0 0 0 0 0 0 0 0 0 0 0 0 0 0 0 0 0 0.25 0"/>
<feBlend mode="normal" in2="BackgroundImageFix" result="effect1_dropShadow_14_2224"/>
<feBlend mode="normal" in="SourceGraphic" in2="effect1_dropShadow_14_2224" result="shape"/>
</filter>
<filter id="filter1_d_14_2224" x="24.7219" y="44.3867" width="76.3733" height="42.2271" filterUnits="userSpaceOnUse" color-interpolation-filters="sRGB">
<feFlood flood-opacity="0" result="BackgroundImageFix"/>
<feColorMatrix in="SourceAlpha" type="matrix" values="0 0 0 0 0 0 0 0 0 0 0 0 0 0 0 0 0 0 127 0" result="hardAlpha"/>
<feOffset dy="4"/>
<feGaussianBlur stdDeviation="2"/>
<feComposite in2="hardAlpha" operator="out"/>
<feColorMatrix type="matrix" values="0 0 0 0 0 0 0 0 0 0 0 0 0 0 0 0 0 0 0.25 0"/>
<feBlend mode="normal" in2="BackgroundImageFix" result="effect1_dropShadow_14_2224"/>
<feBlend mode="normal" in="SourceGraphic" in2="effect1_dropShadow_14_2224" result="shape"/>
</filter>
<linearGradient id="paint0_linear_14_2224" x1="38" y1="0" x2="38" y2="133.589" gradientUnits="userSpaceOnUse">
<stop stop-color="#5CA3DB"/>
<stop offset="1" stop-color="#8855CC"/>
</linearGradient>
</defs>
</svg>
