<svg width="25" height="23" viewBox="0 0 25 23" fill="none" xmlns="http://www.w3.org/2000/svg">
<path d="M6.87567 5.26575C8.57717 4.27198 10.5215 3.75141 12.5007 3.7597C19.596 3.7597 23.0385 10.0438 23.6494 11.2878C23.7169 11.4238 23.7169 11.5764 23.6494 11.7135C23.2534 12.5185 21.6739 15.4311 18.6882 17.3872M14.7507 19.0193C14.0102 19.1676 13.2563 19.2417 12.5007 19.2405C5.40529 19.2405 1.96279 12.9564 1.35192 11.7124C1.31891 11.6459 1.30176 11.5729 1.30176 11.499C1.30176 11.425 1.31891 11.352 1.35192 11.2856C1.59829 10.7858 2.29692 9.48095 3.50067 8.09542M10.2507 9.02758C10.8937 8.46264 11.7323 8.16107 12.5944 8.18478C13.4565 8.2085 14.2766 8.55569 14.8864 9.1551C15.4963 9.7545 15.8495 10.5606 15.8736 11.408C15.8978 12.2553 15.5909 13.0796 15.0162 13.7116M2.37567 1.54816L22.6257 21.452" stroke="#AFAFAF" stroke-width="2.21454" stroke-linecap="round" stroke-linejoin="round"/>
</svg>
