<svg width="47" height="53" viewBox="0 0 47 53" fill="none" xmlns="http://www.w3.org/2000/svg">
<path fill-rule="evenodd" clip-rule="evenodd" d="M23.5 0C10.6277 0 0 10.4351 0 23.3074C0 30.8435 3.64271 37.5443 9.24591 41.8048V52.2091L20.1638 46.3784C21.2548 46.5342 22.3687 46.6148 23.5 46.6148C36.3723 46.6148 47 36.1797 47 23.3074C47 10.4351 36.3723 0 23.5 0Z" fill="url(#paint0_linear_8_97)"/>
<g filter="url(#filter0_d_8_97)">
<path d="M25.0779 21.1479C25.6887 21.6714 26.5538 21.778 27.2735 21.4183L28.6443 20.7332C30.6365 19.7375 32.5197 22.253 31.0031 23.8841L26.4303 28.8018C25.6901 29.5979 24.4496 29.657 23.6371 28.9349L19.7848 25.5112C19.1775 24.9715 18.3041 24.8528 17.5748 25.2108L16.6175 25.6808C14.6267 26.6581 12.7617 24.1514 14.2697 22.5254L18.4602 18.0072C19.1906 17.2197 20.4125 17.1497 21.2281 17.8486L25.0779 21.1479Z" fill="#FDFFFC"/>
</g>
<defs>
<filter id="filter0_d_8_97" x="9.72021" y="17.3672" width="25.8344" height="20.0727" filterUnits="userSpaceOnUse" color-interpolation-filters="sRGB">
<feFlood flood-opacity="0" result="BackgroundImageFix"/>
<feColorMatrix in="SourceAlpha" type="matrix" values="0 0 0 0 0 0 0 0 0 0 0 0 0 0 0 0 0 0 127 0" result="hardAlpha"/>
<feOffset dy="4"/>
<feGaussianBlur stdDeviation="2"/>
<feComposite in2="hardAlpha" operator="out"/>
<feColorMatrix type="matrix" values="0 0 0 0 0 0 0 0 0 0 0 0 0 0 0 0 0 0 0.25 0"/>
<feBlend mode="normal" in2="BackgroundImageFix" result="effect1_dropShadow_8_97"/>
<feBlend mode="normal" in="SourceGraphic" in2="effect1_dropShadow_8_97" result="shape"/>
</filter>
<linearGradient id="paint0_linear_8_97" x1="13.0984" y1="0" x2="13.0984" y2="50.8525" gradientUnits="userSpaceOnUse">
<stop stop-color="#5CA3DB"/>
<stop offset="1" stop-color="#8855CC"/>
</linearGradient>
</defs>
</svg>
