<svg width="27" height="21" viewBox="0 0 27 21" fill="none" xmlns="http://www.w3.org/2000/svg">
<path d="M17.1162 10.5C17.1162 11.5398 16.7352 12.537 16.0571 13.2722C15.3789 14.0074 14.4591 14.4205 13.5001 14.4205C12.5411 14.4205 11.6213 14.0074 10.9432 13.2722C10.265 12.537 9.88403 11.5398 9.88403 10.5C9.88403 9.46024 10.265 8.46306 10.9432 7.72783C11.6213 6.99261 12.5411 6.57956 13.5001 6.57956C14.4591 6.57956 15.3789 6.99261 16.0571 7.72783C16.7352 8.46306 17.1162 9.46024 17.1162 10.5Z" stroke="#AFAFAF" stroke-width="2.5" stroke-linecap="round" stroke-linejoin="round"/>
<path d="M1.99829 10.5C3.53392 5.19825 8.10342 1.35228 13.4998 1.35228C18.8974 1.35228 23.4657 5.19825 25.0013 10.5C23.4657 15.8018 18.8974 19.6477 13.4998 19.6477C8.10342 19.6477 3.53392 15.8018 1.99829 10.5Z" stroke="#AFAFAF" stroke-width="2.5" stroke-linecap="round" stroke-linejoin="round"/>
</svg>
