<svg
  width="180"
  height="166"
  viewBox="0 0 180 166"
  fill="none"
  xmlns="http://www.w3.org/2000/svg"
>
  <path
    d="M20 0C8.95431 0 0 8.9543 0 20V113.772C0 124.818 8.9543 133.772 20 133.772H160C171.046 133.772 180 124.818 180 113.772V20C180 8.95431 171.046 0 160 0H20ZM23.5551 133.772H20V143.772H23.5551V133.772ZM20.6642 166L10.7042 165.107L8.73917 187.012L26.5382 174.093L20.6642 166ZM65.0662 133.772V123.772H61.8197L59.1922 125.68L65.0662 133.772ZM10 20C10 14.4772 14.4771 10 20 10V-10C3.43146 -10 -10 3.43145 -10 20H10ZM10 113.772V20H-10V113.772H10ZM20 123.772C14.4772 123.772 10 119.295 10 113.772H-10C-10 130.341 3.43145 143.772 20 143.772V123.772ZM30.6242 166.893L33.5151 134.666L13.5951 132.879L10.7042 165.107L30.6242 166.893ZM59.1922 125.68L14.7902 157.907L26.5382 174.093L70.9402 141.865L59.1922 125.68ZM160 123.772V143.772H170V113.772C170 119.295 165.523 123.772 160 123.772ZM170 20V113.772H190V20H170ZM160 10C165.523 10 170 14.4772 170 20H190C190 3.43146 176.569 -10 160 -10V10Z"
    fill="black"
    fillOpacity="0.5"
  />
</svg>
