<svg width="180" height="166" viewBox="0 0 180 166" fill="none" xmlns="http://www.w3.org/2000/svg">
<mask id="path-1-inside-1_119_7" fill="white">
<path fillRule="evenodd" clipRule="evenodd" d="M0 49.5C0 64.4953 6.66781 77.9333 17.2003 87.0108L90 166L162.8 87.0108C173.332 77.9333 180 64.4953 180 49.5C180 22.1619 157.838 0 130.5 0C113.759 0 98.9583 8.31104 90 21.0323C81.0417 8.31104 66.2414 0 49.5 0C22.1619 0 0 22.1619 0 49.5Z"/>
</mask>
<path fillRule="evenodd" clipRule="evenodd" d="M0 49.5C0 64.4953 6.66781 77.9333 17.2003 87.0108L90 166L162.8 87.0108C173.332 77.9333 180 64.4953 180 49.5C180 22.1619 157.838 0 130.5 0C113.759 0 98.9583 8.31104 90 21.0323C81.0417 8.31104 66.2414 0 49.5 0C22.1619 0 0 22.1619 0 49.5Z" fill="white"/>
<path d="M17.2003 87.0108L24.5536 80.2337L24.1641 79.8111L23.7287 79.4359L17.2003 87.0108ZM90 166L82.6467 172.777L90 180.756L97.3533 172.777L90 166ZM162.8 87.0108L156.271 79.4359L155.836 79.8111L155.446 80.2337L162.8 87.0108ZM90 21.0323L81.8238 26.7899L90 38.4005L98.1762 26.7899L90 21.0323ZM23.7287 79.4359C15.3065 72.1771 10 61.4638 10 49.5H-10C-10 67.5269 -1.97085 83.6895 10.6718 94.5857L23.7287 79.4359ZM97.3533 159.223L24.5536 80.2337L9.84697 93.7879L82.6467 172.777L97.3533 159.223ZM155.446 80.2337L82.6467 159.223L97.3533 172.777L170.153 93.7879L155.446 80.2337ZM170 49.5C170 61.4638 164.694 72.1771 156.271 79.4359L169.328 94.5857C181.971 83.6895 190 67.5269 190 49.5H170ZM130.5 10C152.315 10 170 27.6848 170 49.5H190C190 16.6391 163.361 -10 130.5 -10V10ZM98.1762 26.7899C105.342 16.6144 117.149 10 130.5 10V-10C110.368 -10 92.5748 0.00766845 81.8238 15.2746L98.1762 26.7899ZM49.5 10C62.8511 10 74.6582 16.6144 81.8238 26.7899L98.1762 15.2746C87.4252 0.00766845 69.6318 -10 49.5 -10V10ZM10 49.5C10 27.6848 27.6848 10 49.5 10V-10C16.6391 -10 -10 16.6391 -10 49.5H10Z" fill="black" fill-opacity="0.5" mask="url(#path-1-inside-1_119_7)"/>
</svg>
